# xmcd
# 
# Track frame offsets:
#     150
#     24095
#     40985
#     61187
#     77982
#     102860
#     126457
#     141460
#     161012
#     179595
# 
# Disc length: 2797
# 
# Revision: 3
# Processed by: cddbd v1.5.2PL0 Copyright (c) Steve Scherf et al.
# Submitted via: fre:ac v1.0.27
# 
DISCID=890aeb0a
DTITLE=小比類巻かほる - FRONTIER
DYEAR=1992
DGENRE=Pop
TTITLE0=コントロール
TTITLE1=Let’s Share Love
TTITLE2=Tears of Joy
TTITLE3=タンジェリン・ムーンナイト
TTITLE4=Good-bye Kiss
TTITLE5=ガラスのメリーゴーランド
TTITLE6=ハートのスペース
TTITLE7=探してエンジェル
TTITLE8=Frontier
TTITLE9=Smile for Me
EXTD=
EXTT0=
EXTT1=
EXTT2=
EXTT3=
EXTT4=
EXTT5=
EXTT6=
EXTT7=
EXTT8=
EXTT9=
PLAYORDER=
